HIERARCHY
ROOT Hips
{
  OFFSET 0 0 0
  CHANNELS 6 Xposition Yposition Zposition Zrotation Yrotation Xrotation
  JOINT LeftThigh
  {
    OFFSET 8.759831 0 -6.164326
    CHANNELS 3 Zrotation Yrotation Xrotation
    JOINT LeftLeg
    {
      OFFSET 0 0 -44.123596
      CHANNELS 3 Zrotation Yrotation Xrotation
      JOINT LeftFoot
      {
        OFFSET 0 0 -40.997191
        CHANNELS 3 Zrotation Yrotation Xrotation
        End Site
        {
          OFFSET 0 -13.883989 -5.217556
        }
      }
    }
  }
  JOINT RightThigh
  {
    OFFSET -8.759831 0 -6.164326
    CHANNELS 3 Zrotation Yrotation Xrotation
    JOINT RightLeg
    {
      OFFSET 0 0 -44.123596
      CHANNELS 3 Zrotation Yrotation Xrotation
      JOINT RightFoot
      {
        OFFSET 0 0 -40.997191
        CHANNELS 3 Zrotation Yrotation Xrotation
        End Site
        {
          OFFSET 0 -13.883989 -5.217556
        }
      }
    }
  }
  JOINT SpineLow
  {
    OFFSET 0 0 4.91573
    CHANNELS 3 Zrotation Yrotation Xrotation
    JOINT SpineMid
    {
      OFFSET 0 0 13.436657
      CHANNELS 3 Zrotation Yrotation Xrotation
      JOINT Chest
      {
        OFFSET 0 0 13.436657
        CHANNELS 3 Zrotation Yrotation Xrotation
        JOINT LeftShoulder
        {
          OFFSET 7.865169 1.474719 9.831461
          CHANNELS 3 Zrotation Yrotation Xrotation
          JOINT LeftArm
          {
            OFFSET 9.536517 0 4.424157
            CHANNELS 3 Zrotation Yrotation Xrotation
            JOINT LeftForearm
            {
              OFFSET 0 0 26.845787
              CHANNELS 3 Zrotation Yrotation Xrotation
              JOINT LeftHand
              {
                OFFSET 0 0 26.247051
                CHANNELS 3 Zrotation Yrotation Xrotation
              }
            }
          }
        }
        JOINT RightShoulder
        {
          OFFSET -7.865169 1.474719 9.831461
          CHANNELS 3 Zrotation Yrotation Xrotation
          JOINT RightArm
          {
            OFFSET -9.536517 0 4.424157
            CHANNELS 3 Zrotation Yrotation Xrotation
            JOINT RightForearm
            {
              OFFSET 0 0 -26.845787
              CHANNELS 3 Zrotation Yrotation Xrotation
              JOINT RightHand
              {
                OFFSET 0 0 -26.247051
                CHANNELS 3 Zrotation Yrotation Xrotation
              }
            }
          }
        }
        JOINT Neck
        {
          OFFSET 0 0 15.730337
          CHANNELS 3 Zrotation Yrotation Xrotation
          JOINT Head
          {
            OFFSET 0 0 11.797753
            CHANNELS 3 Zrotation Yrotation Xrotation
            End Site
            {
              OFFSET 0 0 7.747191
            }
          }
        }
      }
    }
  }
}
MOTION
Frames: 8
Frame Time: 0.01
-40.37534  96.563339  38.208725  173.291085  16.156686  77.564093  -10.675764  0.005112  -1.32063  16.553548  4.724088  15.425433  9.494391  -2.292809  -1.216449  -8.619551  3.33254  -0.637088  -5.286636  -0.897053  11.478566  -6.380205  3.768107  -2.480127  -0.55109  0.723616  0.764853  -1.483701  1.995018  2.074613  -1.483701  1.995018  2.074614  -20.130084  8.333837  15.158755  121.646962  65.208863  -168.786489  -63.243076  29.717448  65.067285  57.007393  -16.052033  -2.930525  19.380489  -21.134852  12.897462  26.776895  67.915856  -32.73686  -57.471923  -45.439484  -71.528996  68.08967  14.354304  1.761349  -3.510646  -2.249407  6.663541  -2.608476  -1.725639  4.984284  
-40.374416  96.566544  38.159611  173.283595  16.212001  77.515781  -10.818367  0.032839  -1.24848  16.595286  4.73806  15.432002  9.639717  -2.289737  -1.271502  -8.556988  3.288519  -0.605799  -5.252624  -0.851612  11.514874  -6.411953  3.766458  -2.501828  -0.565401  0.734941  0.76208  -1.522567  2.026353  2.066348  -1.522567  2.026353  2.066348  -19.915646  8.208637  15.128841  121.3953  65.208004  -169.122197  -63.894062  30.696876  64.456486  57.047402  -16.281569  -2.81543  19.371378  -21.150677  12.869012  26.715273  67.80476  -32.666808  -57.429215  -45.381857  -71.471382  67.697055  14.513506  1.710568  -3.330831  -2.211183  6.564365  -2.47439  -1.694451  4.910781  
-40.371212  96.560509  38.157475  173.260884  16.25904  77.467369  -10.815135  0.050537  -1.217181  16.57084  4.751453  15.462562  9.720942  -2.29621  -1.305761  -8.564484  3.290552  -0.5591  -5.169408  -0.846735  11.526323  -6.438399  3.770676  -2.520724  -0.564934  0.735058  0.746827  -1.521758  2.02631  2.024659  -1.521758  2.02631  2.024659  -19.80529  8.192949  15.188959  121.281898  65.162937  -169.289769  -64.115025  31.373922  64.151023  57.627704  -16.447128  -2.703905  19.240664  -21.117868  12.919204  26.297413  67.581121  -32.932952  -57.290489  -45.297203  -71.141573  66.562335  14.156632  1.441882  -3.239902  -2.143989  6.506668  -2.40713  -1.642758  4.868225  
-40.369602  96.567429  38.100456  173.267155  16.292297  77.437059  -10.967442  0.066218  -1.1479  16.642095  4.763624  15.459622  9.820508  -2.292206  -1.360434  -8.478691  3.257997  -0.549667  -5.169308  -0.823287  11.572246  -6.49458  3.771283  -2.531278  -0.609428  0.734635  0.747993  -1.643375  2.026538  2.026483  -1.643375  2.026538  2.026483  -19.425013  8.111365  15.152199  121.257654  65.165245  -169.304977  -64.005583  31.607701  64.007725  58.836342  -16.522794  -2.730864  19.398839  -21.11399  12.854205  25.897974  67.325099  -33.238231  -56.891658  -45.603957  -70.904505  66.511901  14.009151  1.922575  -2.982479  -2.086898  6.38873  -2.215074  -1.5966  4.780966  
-40.372154  96.567543  38.077145  173.261147  16.304348  77.405042  -10.961859  0.090018  -1.113608  16.597042  4.762261  15.475845  9.878744  -2.297132  -1.397612  -8.422697  3.266686  -0.536597  -5.154402  -0.831066  11.604886  -6.548952  3.772306  -2.536651  -0.631187  0.725113  0.751313  -1.703044  2.001263  2.035123  -1.703044  2.001263  2.035123  -19.269075  8.129476  15.096145  120.79979  65.173933  -169.61013  -63.832877  31.124011  63.960007  59.577658  -16.450127  -2.535321  19.447218  -21.062181  12.799165  25.43033  67.052522  -33.504311  -56.396854  -45.771829  -70.759627  66.409076  13.810936  1.926807  -2.839787  -2.020828  6.275378  -2.109125  -1.54501  4.696774  
-40.366585  96.573219  38.032719  173.273886  16.291937  77.378807  -11.087463  0.092559  -1.05243  16.673796  4.780645  15.474197  9.884534  -2.305669  -1.442736  -8.335692  3.246992  -0.53143  -5.22156  -0.794611  11.659663  -6.554657  3.753762  -2.555199  -0.646346  0.707801  0.759382  -1.744763  1.954623  2.057156  -1.744763  1.954623  2.057155  -19.223267  8.197396  14.992663  120.321816  65.192223  -169.906785  -63.679528  30.316325  63.845836  59.123383  -16.349648  -2.309334  19.466287  -20.987638  12.738708  24.78431  66.802324  -33.730052  -55.700649  -45.977214  -70.924347  66.460016  13.897685  1.908956  -2.742337  -1.938828  6.160901  -2.03725  -1.481978  4.611643  
-40.363907  96.57122  38.013771  173.275964  16.274051  77.359773  -11.108908  0.095322  -1.0376  16.664478  4.79154  15.50939  9.904696  -2.315567  -1.482296  -8.323011  3.234792  -0.508424  -5.20092  -0.773143  11.669606  -6.597804  3.737628  -2.555635  -0.670487  0.693794  0.772554  -1.810795  1.917449  2.092815  -1.810795  1.917449  2.092815  -19.11832  8.230775  14.84608  119.729585  65.177901  -170.295723  -63.818952  29.848635  63.614849  58.137845  -16.267301  -2.137091  19.554694  -20.904377  12.632284  24.344149  66.681127  -33.925007  -55.206622  -45.861369  -70.934348  66.280628  14.152413  1.847803  -2.621062  -1.873808  6.028568  -1.947356  -1.431405  4.513083  
-40.382633  96.572815  37.986328  173.286275  16.230883  77.340458  -11.21883  0.115858  -1.020207  16.719752  4.793496  15.534122  9.909869  -2.333597  -1.519495  -8.377938  3.249002  -0.47849  -5.252292  -0.72202  11.702499  -6.500594  3.6825  -2.582572  -0.665254  0.678655  0.773456  -1.796929  1.875937  2.095826  -1.796929  1.875937  2.095826  -19.209582  8.300614  14.786947  119.284739  65.13969  -170.621631  -64.063822  31.32084  63.359959  59.066998  -16.614227  -2.624385  19.456315  -20.826406  12.59381  23.756004  66.597322  -33.905722  -54.498266  -46.189289  -71.179585  66.041967  14.366407  1.781318  -2.635174  -1.80503  5.965946  -1.958812  -1.379681  4.466403  
